<?xml version="1.0" standalone="no"?>
<!DOCTYPE svg PUBLIC "-//W3C//DTD SVG 20010904//EN"
 "http://www.w3.org/TR/2001/REC-SVG-20010904/DTD/svg10.dtd">
<svg version="1.0" xmlns="http://www.w3.org/2000/svg"
 width="736.000000pt" height="736.000000pt" viewBox="0 0 736.000000 736.000000"
 preserveAspectRatio="xMidYMid meet">

<g transform="translate(0.000000,736.000000) scale(0.100000,-0.100000)"
fill="#000000" stroke="none">
<path d="M1086 6210 c-761 -87 -1113 -534 -941 -1195 33 -126 90 -264 156
-374 166 -277 424 -487 689 -560 320 -89 705 -10 963 198 60 49 96 71 115 71
27 0 413 55 465 66 35 7 54 43 39 71 -6 11 -39 35 -74 53 -84 44 -188 113
-214 142 l-22 23 30 115 c80 316 29 684 -133 950 -69 112 -207 249 -314 311
-87 51 -193 92 -295 115 -79 18 -355 26 -464 14z m443 -127 c307 -63 538 -283
635 -603 36 -122 48 -207 49 -355 0 -141 -11 -216 -50 -338 -14 -46 -22 -89
-19 -103 8 -32 65 -95 127 -140 54 -39 55 -54 6 -54 -18 0 -92 -9 -165 -20
l-133 -19 -50 -45 c-170 -153 -371 -231 -621 -243 -272 -13 -488 72 -701 276
-108 103 -188 214 -258 356 -94 192 -129 338 -129 535 0 209 57 353 191 489
156 157 408 254 729 281 121 11 293 3 389 -17z"/>
<path d="M1394 5661 c-22 -10 -55 -36 -72 -57 -36 -43 -86 -156 -104 -233
l-11 -51 -53 54 c-64 65 -134 100 -231 115 -137 21 -211 10 -265 -38 -59 -53
-49 -181 27 -331 80 -159 240 -319 481 -481 127 -85 142 -86 196 -14 54 72
193 306 243 410 76 158 88 205 82 325 -3 69 -10 120 -22 150 -60 146 -159 202
-271 151z m114 -111 c98 -92 92 -272 -18 -496 -43 -86 -184 -320 -209 -346 -9
-10 -186 116 -280 201 -41 36 -99 95 -129 131 -65 79 -131 210 -139 278 -5 45
-3 51 17 62 28 15 131 7 209 -16 93 -27 169 -117 207 -246 13 -43 36 -68 63
-68 24 0 49 44 56 98 18 147 88 346 139 397 30 30 55 32 84 5z"/>
<path d="M3760 5673 c-99 -15 -181 -49 -278 -116 -161 -111 -288 -306 -333
-512 -20 -90 -15 -265 9 -356 75 -282 329 -556 656 -710 220 -103 767 -249
935 -249 80 0 82 -14 5 -53 -185 -92 -368 -139 -724 -187 -283 -38 -379 -67
-439 -135 -53 -61 -51 -129 9 -233 50 -87 133 -133 296 -167 43 -9 80 -18 82
-19 6 -7 -82 -195 -140 -296 -33 -58 -129 -208 -213 -335 -157 -237 -224 -358
-301 -546 -86 -210 -194 -544 -194 -600 0 -35 34 -55 74 -45 22 5 29 18 51 94
131 442 259 739 414 956 126 178 261 400 360 592 49 97 122 183 186 220 16 10
18 16 9 30 -16 27 -69 42 -212 59 -177 21 -247 40 -287 81 -37 36 -60 94 -51
127 12 51 58 63 491 123 287 39 508 90 643 147 105 45 221 117 261 162 31 35
41 78 21 90 -6 4 -86 17 -178 31 -467 67 -835 156 -1041 250 -175 80 -376 242
-470 378 -92 134 -131 249 -131 391 0 105 21 191 72 295 34 68 60 103 133 176
75 76 104 98 175 132 133 64 262 76 360 35 105 -44 424 -107 621 -123 116 -10
260 0 313 20 14 5 67 17 118 27 115 21 454 24 568 5 349 -58 613 -188 808
-397 164 -175 263 -384 330 -695 25 -117 27 -141 27 -375 0 -214 -4 -268 -23
-380 -32 -183 -61 -293 -141 -543 -80 -248 -105 -342 -122 -461 -22 -157 -8
-239 118 -671 96 -330 153 -549 147 -564 -4 -9 7 -18 31 -26 30 -10 40 -9 60
4 14 9 25 22 25 29 0 6 58 68 129 137 72 69 133 135 136 146 9 34 -33 75 -168
160 -67 42 -128 82 -135 89 -10 9 -3 25 36 76 71 95 82 115 82 148 0 32 -33
65 -169 168 -36 27 -66 53 -68 59 -2 5 46 66 106 136 212 244 210 236 79 361
-54 51 -88 91 -82 96 5 4 64 45 132 91 68 45 130 93 138 106 25 37 10 73 -87
204 -50 67 -87 126 -82 130 4 5 59 29 121 56 135 57 167 82 158 125 -3 17 -51
95 -105 175 l-100 144 122 101 c184 153 206 184 148 214 -17 8 -76 27 -133 41
-57 14 -121 30 -142 36 l-39 10 85 86 c172 176 194 214 145 247 -13 8 -104 34
-203 56 -98 23 -181 43 -183 45 -2 2 30 75 71 161 86 179 93 202 74 229 -16
22 -64 22 -274 3 -73 -7 -134 -10 -136 -8 -1 2 1 38 5 79 14 133 11 247 -7
264 -8 9 -22 16 -30 16 -8 0 -95 -32 -195 -71 l-180 -71 -57 25 c-183 81 -408
126 -667 134 -204 6 -339 -8 -520 -52 -102 -25 -121 -27 -255 -22 -212 8 -396
54 -574 143 -123 62 -213 82 -306 67z"/>
<path d="M3937 5325 c-23 -22 -39 -49 -43 -72 -6 -33 -3 -40 25 -65 25 -22 41
-28 79 -28 68 1 102 34 102 100 0 99 -91 135 -163 65z"/>
<path d="M5336 4890 c-92 -60 -102 -214 -19 -280 63 -49 137 -43 204 17 75 68
103 160 66 217 -41 61 -188 89 -251 46z"/>
<path d="M4045 2599 c-13 -21 39 -56 123 -83 137 -43 348 -72 603 -82 l156 -7
47 46 c38 36 47 50 44 74 -3 26 -6 28 -38 25 -153 -15 -607 3 -876 34 -36 4
-54 2 -59 -7z"/>
<path d="M3700 2102 c0 -11 13 -37 29 -60 24 -32 44 -46 108 -70 148 -57 324
-94 533 -112 151 -13 488 -13 569 0 96 16 251 103 251 142 0 13 -80 5 -170
-17 -91 -22 -421 -31 -587 -16 -229 22 -436 63 -612 122 -101 34 -121 36 -121
11z"/>
<path d="M3480 1358 c0 -6 24 -35 53 -63 48 -46 64 -54 192 -97 183 -62 247
-77 385 -94 132 -15 356 -18 365 -5 3 5 31 17 63 26 65 19 112 42 112 54 0 4
-78 11 -172 14 -321 12 -623 62 -882 148 -99 32 -116 35 -116 17z"/>
</g>
</svg>
